<svg width="79" height="55" viewBox="0 0 79 55" fill="none" xmlns="http://www.w3.org/2000/svg">
<path d="M19.5977 -17.8515C17.6344 -17.6061 15.8764 -7.81803 15.716 -7.23746C11.0839 9.51986 3.96916 27.7452 2.10476 45.5241M2.10476 45.5241C1.80843 48.35 1.64473 51.1646 1.64473 53.9603C1.64473 54.3018 1.29438 52.3533 1.09886 51.4735C0.757313 49.9366 1.3508 47.6691 2.10476 45.5241ZM2.10476 45.5241C2.70909 43.8048 3.41651 42.1642 3.8282 41.0414C7.57528 30.8221 14.3236 20.1012 23.8433 14.4759C31.74 9.80966 23.8457 14.5032 21.7811 17.0839M5.40515 37.8269C7.51076 37.5929 8.30913 35.4555 10.136 34.6123C18.0439 30.9625 16.5828 37.5544 14.6849 42.1938C12.9892 46.3389 14.9428 51.9055 18.506 46.5607M41.4324 11.6253C41.3206 12.6309 40.8568 13.2012 40.3406 14.0513C36.7265 20.004 35.0189 27.9987 32.7591 34.4304C31.8705 36.9597 29.999 42.203 28.819 45.782M28.819 45.782C27.8177 48.8189 27.3142 50.6576 28.3316 48.6229C29.0009 47.2842 29.59 46.4498 28.819 45.782ZM28.819 45.782C28.694 45.6738 28.5334 45.5699 28.3316 45.469M40.3406 3.98314C39.158 3.98314 45.6881 1.93116 46.2238 2.46684C46.811 3.05402 45.9437 4.15095 45.101 4.47316M45.101 4.47316C44.8036 4.58689 44.5092 4.60411 44.283 4.46836C43.9857 4.29 44.4643 4.33313 45.101 4.47316ZM45.101 4.47316C45.7533 4.61665 46.5715 4.86188 46.891 5.07487M59.9919 12.717C59.9919 16.0525 57.5479 19.6813 56.5954 22.7852C55.7528 25.5307 54.5271 30.2966 53.3088 34.8675M53.3088 34.8675C51.1803 42.8532 49.0745 50.2438 49.0745 45.2264C49.0745 41.8177 50.9834 38.1857 53.3088 34.8675ZM53.3088 34.8675C55.2529 32.0932 57.4883 29.5382 59.1427 27.5161C63.7937 21.8316 68.6418 18.101 74.427 14.0514C75.0058 13.6462 77.7968 15.0041 77.217 15.7496C76.5964 16.5475 75.7782 16.5819 75.2761 17.0839" stroke="#1A1A1A" stroke-width="2" stroke-linecap="round"/>
</svg>
