<svg width="18" height="18" viewBox="0 0 18 18" fill="none" xmlns="http://www.w3.org/2000/svg">
<path d="M1 14.535C5.03147 10.7903 9.27242 7.2577 13.4757 3.72075C14.5855 2.78686 15.5223 1.4895 16.8811 1.01719C17.3391 0.858008 16.3446 1.84387 16.0822 2.26116C14.1747 5.29509 12.0265 8.15645 10.0058 11.1099C9.06646 12.4828 8.14674 13.8705 7.23786 15.2648C6.88319 15.8089 5.69978 17.2105 6.29371 16.9732C6.72898 16.7992 7.21956 16.2189 7.56871 15.9199C8.57269 15.0601 9.59758 14.2622 10.6675 13.49C12.2978 12.3134 13.9318 11.1779 15.7756 10.3801C17.0464 9.8302 15.7439 12.026 15.5173 12.4451C14.7263 13.9085 13.4268 15.3326 12.9108 16.9234" stroke="white" stroke-width="2" stroke-linecap="round"/>
</svg>
