<svg width="48" height="54" viewBox="0 0 48 54" fill="none" xmlns="http://www.w3.org/2000/svg">
<path d="M43.4809 5.96728C46.9435 6.42315 44.8216 20.9671 44.2811 25.0721C43.8665 28.2213 40.3893 31.4573 38.7937 32.794C38.7718 33.9857 38.6752 34.7334 38.6735 34.7471C38.6735 34.7471 37.7011 42.1347 34.3872 44.9192C33.0201 46.0679 29.3019 48.488 27.0346 50.3931C25.6965 51.5165 21.2529 49.9759 21.1662 48.4395L21.1709 48.2914C20.9619 49.8741 15.9964 50.2818 14.963 48.8038C13.266 46.3769 10.3019 43.077 9.27865 41.6136C6.79835 38.0663 7.77019 30.6786 7.77019 30.6786C7.77247 30.6615 7.87295 29.915 8.15958 28.7609C6.96413 27.0565 4.44407 23.0309 4.85863 19.882C5.39903 15.7772 7.11303 1.18074 10.5754 1.63519C13.9286 2.07666 19.018 15.901 19.0419 19.011L30.8066 20.5599C31.6346 17.5621 40.1274 5.5266 43.4809 5.96728Z" fill="#EBEBEB"/>
<path fill-rule="evenodd" clip-rule="evenodd" d="M7.77044 30.679C7.77044 30.679 7.86909 29.9297 8.15855 28.7637C6.96354 27.0602 4.4431 23.0321 4.85778 19.8823C4.8835 19.6869 4.91188 19.4678 4.94299 19.2276C5.56535 14.4221 7.27759 1.20109 10.5755 1.63527C13.9289 2.07675 19.0184 15.9019 19.042 19.0113L30.8059 20.5601C31.6335 17.5627 40.1278 5.5259 43.4812 5.96738C46.7791 6.40156 45.0111 19.6152 44.3685 24.4181C44.3364 24.6581 44.3071 24.8771 44.2814 25.0725C43.8667 28.2223 40.3896 31.4608 38.7944 32.797C38.7722 33.9982 38.6736 34.7475 38.6736 34.7475C38.6736 34.7475 37.701 42.1347 34.3871 44.9192C33.7896 45.4213 32.7429 46.1662 31.5646 47.0049C30.0471 48.085 28.3111 49.3205 27.0348 50.3929C25.9944 51.2671 23.0744 50.5294 21.7872 49.4353C21.3661 49.0774 21.1198 48.6814 21.1711 48.2912C21.1198 48.6814 20.7793 49.0002 20.2799 49.2369C18.7534 49.9605 15.742 49.9174 14.9633 48.8037C14.0081 47.4375 12.6511 45.7949 11.4649 44.3589C10.5439 43.2439 9.72541 42.2532 9.27823 41.6136C6.79793 38.0663 7.77044 30.679 7.77044 30.679ZM10.6297 45.0355L10.6001 44.9997C9.70718 43.9188 8.86947 42.9047 8.39737 42.2295C6.9621 40.1768 6.58741 37.1595 6.51986 34.8475C6.48511 33.6579 6.53086 32.5869 6.58505 31.8136C6.6122 31.4262 6.6416 31.1117 6.66445 30.8921C6.67588 30.7823 6.68569 30.6961 6.69278 30.6363C6.69632 30.6064 6.69919 30.5831 6.70124 30.5668L6.70369 30.5474L6.70442 30.5418L6.70475 30.5393C6.70475 30.5393 6.70482 30.5388 7.77044 30.679C6.70482 30.5388 6.70484 30.5386 6.70484 30.5386L6.70508 30.5367L6.7055 30.5336L6.7068 30.524L6.7113 30.4921C6.71515 30.4652 6.72078 30.4271 6.72835 30.3784C6.74348 30.2812 6.76642 30.1418 6.79862 29.9655C6.84535 29.7097 6.9117 29.3756 7.00222 28.9794C6.39543 28.0814 5.58442 26.7702 4.92472 25.3072C4.17205 23.638 3.54512 21.6184 3.79216 19.742C3.8177 19.548 3.84593 19.33 3.87707 19.0895L3.87914 19.0736C4.18982 16.6746 4.77916 12.1241 5.71039 8.21732C6.17462 6.26973 6.7403 4.40858 7.43252 3.04C7.77684 2.35927 8.18772 1.72824 8.69065 1.27277C9.20966 0.802724 9.89909 0.462123 10.7158 0.569645C11.4588 0.66746 12.1061 1.10578 12.6316 1.59271C13.175 2.09617 13.7014 2.75798 14.2008 3.49814C15.2016 4.98154 16.183 6.91465 17.0432 8.8945C17.9063 10.881 18.6636 12.9524 19.2085 14.7319C19.5896 15.9766 19.888 17.1447 20.0286 18.0571L30.0999 19.383C30.4719 18.5381 31.0624 17.4871 31.7527 16.3834C32.7396 14.8055 34.0072 13.0007 35.355 11.3053C36.6983 9.61554 38.1467 8.00231 39.4973 6.82848C40.1712 6.24278 40.851 5.73978 41.5061 5.3941C42.1397 5.05978 42.8785 4.80394 43.6215 4.90176C44.4382 5.00928 45.016 5.51671 45.3956 6.10507C45.7635 6.67519 45.9971 7.39106 46.1535 8.13771C46.4679 9.63881 46.5326 11.583 46.4769 13.5843C46.3653 17.599 45.7568 22.1471 45.436 24.5447L45.4333 24.5651C45.4013 24.8037 45.3724 25.02 45.347 25.2128C45.1 27.0892 43.9717 28.8777 42.8127 30.2952C41.7968 31.5376 40.674 32.5943 39.8555 33.3047C39.8404 33.7108 39.818 34.0506 39.797 34.3098C39.7824 34.4884 39.7685 34.629 39.758 34.7269C39.7527 34.7758 39.7483 34.8141 39.745 34.8411L39.7411 34.8731L39.7399 34.8826L39.7395 34.8858L39.7392 34.8876C39.7392 34.8876 39.7392 34.8878 38.6736 34.7475C39.7392 34.8878 39.7391 34.8883 39.7391 34.8883L39.739 34.889L39.738 34.8965L39.7354 34.9158C39.7331 34.9321 39.7299 34.9554 39.7256 34.9852C39.7169 35.0448 39.7041 35.1305 39.6867 35.2396C39.652 35.4576 39.599 35.769 39.5249 36.1502C39.3771 36.9112 39.1441 37.9576 38.8027 39.0976C38.139 41.3133 36.9962 44.1308 35.0785 45.7421C34.4477 46.2721 33.3761 47.0349 32.2338 47.8479L32.1878 47.8806C30.6592 48.9685 28.9625 50.177 27.7262 51.2158C27.0769 51.7614 26.1957 51.8726 25.4744 51.8509C24.7096 51.8279 23.888 51.6489 23.1446 51.3826C22.406 51.1181 21.6728 50.7416 21.1151 50.2745C21.0551 50.2243 20.9935 50.1698 20.9316 50.111C20.8565 50.1517 20.7829 50.1885 20.7119 50.2215C20.0523 50.5283 19.2467 50.7021 18.4648 50.7665C17.6778 50.8313 16.8378 50.7916 16.0931 50.6159C15.3909 50.4502 14.5685 50.1147 14.0824 49.4196C13.1594 48.0995 11.8376 46.4977 10.645 45.054L10.6384 45.0464L10.6307 45.0366L10.6297 45.0355Z" fill="#1A1A1A"/>
<path d="M18.6455 24.7897C17.5257 24.3803 16.3481 24.8081 15.7655 25.8357C15.0117 27.165 20.6236 26.8312 19.7256 25.6001C19.4167 25.1766 19.1438 24.9718 18.6455 24.7897Z" fill="#1A1A1A"/>
<mask id="mask0_209_205" style="mask-type:alpha" maskUnits="userSpaceOnUse" x="8" y="28" width="12" height="10">
<path d="M8.84106 33.5672C8.4459 36.5687 8.49508 34.6494 11.4966 35.0445C16.9314 35.76 18.9951 40.433 19.7106 34.9982C20.1058 31.9966 17.9929 29.243 14.9914 28.8479C11.9898 28.4527 9.23622 30.5656 8.84106 33.5672Z" fill="black"/>
</mask>
<g mask="url(#mask0_209_205)">
<circle cx="5.48169" cy="5.48169" r="5.48169" transform="matrix(-0.991445 -0.130526 -0.130526 0.991445 20.4261 29.5634)" fill="#1A1A1A"/>
<ellipse cx="5.97113" cy="5.88725" rx="5.97113" ry="5.88725" transform="matrix(-0.92388 0.382683 0.382683 0.92388 17.7202 28.6147)" fill="#EBEBEB"/>
<circle cx="3.52394" cy="3.52394" r="3.52394" transform="matrix(-0.991445 -0.130526 -0.130526 0.991445 20.0682 32.2809)" fill="#1A1A1A"/>
</g>
<path d="M29.6932 26.2442C30.8807 26.1387 31.9075 26.8566 32.2043 28C32.5883 29.4791 27.2541 27.7042 28.4401 26.7475C28.8481 26.4184 29.1648 26.2912 29.6932 26.2442Z" fill="#1A1A1A"/>
<mask id="mask1_209_205" style="mask-type:alpha" maskUnits="userSpaceOnUse" x="25" y="31" width="12" height="8">
<path d="M36.8915 37.2601C36.4963 40.2617 36.9456 38.395 33.9441 37.9999C28.5093 37.2843 25.3064 41.2639 26.0219 35.8291C26.4171 32.8276 29.1707 30.7147 32.1722 31.1099C35.1738 31.505 37.2867 34.2586 36.8915 37.2601Z" fill="black"/>
</mask>
<g mask="url(#mask1_209_205)">
<circle cx="31.4567" cy="36.5446" r="5.48169" transform="rotate(7.5 31.4567 36.5446)" fill="#1A1A1A"/>
<ellipse cx="30.7502" cy="38.4841" rx="5.97113" ry="5.88725" transform="rotate(37.5 30.7502 38.4841)" fill="#EBEBEB"/>
<circle cx="29.4135" cy="37.0656" r="3.52394" transform="rotate(7.5 29.4135 37.0656)" fill="#1A1A1A"/>
</g>
<path d="M21.9322 42.5094C21.9322 42.5094 24.1 42.0037 24.8828 42.8979C25.8055 43.9519 23.0324 45.5549 21.5568 45.3607L21.9322 42.5094Z" fill="#1A1A1A"/>
<path d="M21.9322 42.5094C21.9322 42.5094 19.969 41.4598 18.9815 42.121C17.8175 42.9003 20.0812 45.1664 21.5568 45.3607L21.9322 42.5094Z" fill="#1A1A1A"/>
</svg>
